<?xml version="1.0" encoding="UTF-8"?>
<!DOCTYPE svg
PUBLIC "-//W3C//DTD SVG 1.1//EN"
       "http://www.w3.org/Graphics/SVG/1.1/DTD/svg11.dtd">
<svg viewBox="49 39 886 761" width="837px" height="722px" xmlns="http://www.w3.org/2000/svg" version="1.1">
   <line x1="603" y1="343" x2="613" y2="343" style="stroke:#bbb;stroke-width:1;"/>
   <line x1="723" y1="200" x2="733" y2="200" style="stroke:#bbb;stroke-width:1;"/>
   <line x1="613" y1="343" x2="723" y2="200" style="stroke:#bbb;stroke-width:1;"/>
   <line x1="610.5" y1="343" x2="606.96446609407" y2="346.53553390593" style="stroke:#bbb;stroke-width:2;"/>
   <line x1="610.5" y1="343" x2="606.96446609407" y2="339.46446609407" style="stroke:#bbb;stroke-width:2;"/>
   <line x1="728" y1="200" x2="724.46446609407" y2="203.53553390593" style="stroke:#bbb;stroke-width:2;"/>
   <line x1="728" y1="200" x2="724.46446609407" y2="196.46446609407" style="stroke:#bbb;stroke-width:2;"/>
   <line x1="400" y1="550" x2="410" y2="550" style="stroke:#c00;stroke-width:1;"/>
   <line x1="539" y1="584" x2="549" y2="584" style="stroke:#c00;stroke-width:1;"/>
   <line x1="410" y1="550" x2="539" y2="584" style="stroke:#c00;stroke-width:1;"/>
   <line x1="407.5" y1="550" x2="403.96446609407" y2="553.53553390593" style="stroke:#c00;stroke-width:2;"/>
   <line x1="407.5" y1="550" x2="403.96446609407" y2="546.46446609407" style="stroke:#c00;stroke-width:2;"/>
   <line x1="544" y1="584" x2="540.46446609407" y2="587.53553390593" style="stroke:#c00;stroke-width:2;"/>
   <line x1="544" y1="584" x2="540.46446609407" y2="580.46446609407" style="stroke:#c00;stroke-width:2;"/>
   <line x1="313" y1="86" x2="323" y2="86" style="stroke:#bbb;stroke-width:1;"/>
   <line x1="451" y1="124" x2="461" y2="124" style="stroke:#bbb;stroke-width:1;"/>
   <line x1="323" y1="86" x2="451" y2="124" style="stroke:#bbb;stroke-width:1;"/>
   <line x1="320.5" y1="86" x2="316.96446609407" y2="89.535533905933" style="stroke:#bbb;stroke-width:2;"/>
   <line x1="320.5" y1="86" x2="316.96446609407" y2="82.464466094067" style="stroke:#bbb;stroke-width:2;"/>
   <line x1="456" y1="124" x2="452.46446609407" y2="127.53553390593" style="stroke:#bbb;stroke-width:2;"/>
   <line x1="456" y1="124" x2="452.46446609407" y2="120.46446609407" style="stroke:#bbb;stroke-width:2;"/>
   <line x1="142" y1="616" x2="152" y2="616" style="stroke:#b0b;stroke-width:1;"/>
   <line x1="287" y1="570" x2="297" y2="570" style="stroke:#b0b;stroke-width:1;"/>
   <line x1="152" y1="616" x2="287" y2="570" style="stroke:#b0b;stroke-width:1;"/>
   <line x1="149.5" y1="616" x2="145.96446609407" y2="619.53553390593" style="stroke:#b0b;stroke-width:2;"/>
   <line x1="149.5" y1="616" x2="145.96446609407" y2="612.46446609407" style="stroke:#b0b;stroke-width:2;"/>
   <line x1="292" y1="570" x2="288.46446609407" y2="573.53553390593" style="stroke:#b0b;stroke-width:2;"/>
   <line x1="292" y1="570" x2="288.46446609407" y2="566.46446609407" style="stroke:#b0b;stroke-width:2;"/>
   <line x1="542" y1="84" x2="552" y2="84" style="stroke:#0bf;stroke-width:1;"/>
   <line x1="723" y1="180" x2="733" y2="180" style="stroke:#0bf;stroke-width:1;"/>
   <line x1="552" y1="84" x2="723" y2="180" style="stroke:#0bf;stroke-width:1;"/>
   <line x1="549.5" y1="84" x2="545.96446609407" y2="87.535533905933" style="stroke:#0bf;stroke-width:2;"/>
   <line x1="549.5" y1="84" x2="545.96446609407" y2="80.464466094067" style="stroke:#0bf;stroke-width:2;"/>
   <line x1="728" y1="180" x2="724.46446609407" y2="183.53553390593" style="stroke:#0bf;stroke-width:2;"/>
   <line x1="728" y1="180" x2="724.46446609407" y2="176.46446609407" style="stroke:#0bf;stroke-width:2;"/>
   <rect width="88" height="20" x="515" y="313" style="fill:#007;stroke:black;"/>
   <text width="88" height="20" x="520" y="327" style="fill:#fff;" font-family="Arial" font-size="16px"> categories</text>
   <rect width="88" height="20" x="515" y="333" style="fill:#aea;stroke:black;"/>
   <text width="88" height="20" x="520" y="347" style="fill:black;" font-family="Arial" font-size="16px">id</text>
   <rect width="88" height="20" x="515" y="353" style="fill:none;stroke:black;"/>
   <text width="88" height="20" x="520" y="367" style="fill:black;" font-family="Arial" font-size="16px">name</text>
   <rect width="88" height="20" x="515" y="373" style="fill:none;stroke:black;"/>
   <text width="88" height="20" x="520" y="387" style="fill:black;" font-family="Arial" font-size="16px">visible</text>
   <rect width="88" height="20" x="515" y="393" style="fill:none;stroke:black;"/>
   <text width="88" height="20" x="520" y="407" style="fill:black;" font-family="Arial" font-size="16px">created</text>
   <rect width="88" height="20" x="515" y="413" style="fill:none;stroke:black;"/>
   <text width="88" height="20" x="520" y="427" style="fill:black;" font-family="Arial" font-size="16px">updated</text>
   <rect width="88" height="20" x="515" y="433" style="fill:none;stroke:black;"/>
   <text width="88" height="20" x="520" y="447" style="fill:black;" font-family="Arial" font-size="16px">description</text>
   <rect width="88" height="20" x="515" y="453" style="fill:none;stroke:black;"/>
   <text width="88" height="20" x="520" y="467" style="fill:black;" font-family="Arial" font-size="16px">image</text>
   <rect width="88" height="20" x="515" y="473" style="fill:none;stroke:black;"/>
   <text width="88" height="20" x="520" y="487" style="fill:black;" font-family="Arial" font-size="16px">part_id</text>
   <rect width="88" height="20" x="515" y="493" style="fill:none;stroke:black;"/>
   <text width="88" height="20" x="520" y="507" style="fill:black;" font-family="Arial" font-size="16px">url</text>
   <rect width="103" height="20" x="297" y="520" style="fill:#007;stroke:black;"/>
   <text width="103" height="20" x="302" y="534" style="fill:#fff;" font-family="Arial" font-size="16px"> orders</text>
   <rect width="103" height="20" x="297" y="540" style="fill:#aea;stroke:black;"/>
   <text width="103" height="20" x="302" y="554" style="fill:black;" font-family="Arial" font-size="16px">id</text>
   <rect width="103" height="20" x="297" y="560" style="fill:none;stroke:black;"/>
   <text width="103" height="20" x="302" y="574" style="fill:black;" font-family="Arial" font-size="16px">user_id</text>
   <rect width="103" height="20" x="297" y="580" style="fill:none;stroke:black;"/>
   <text width="103" height="20" x="302" y="594" style="fill:black;" font-family="Arial" font-size="16px">user_name</text>
   <rect width="103" height="20" x="297" y="600" style="fill:none;stroke:black;"/>
   <text width="103" height="20" x="302" y="614" style="fill:black;" font-family="Arial" font-size="16px">user_phon</text>
   <rect width="103" height="20" x="297" y="620" style="fill:none;stroke:black;"/>
   <text width="103" height="20" x="302" y="634" style="fill:black;" font-family="Arial" font-size="16px">user_email</text>
   <rect width="103" height="20" x="297" y="640" style="fill:none;stroke:black;"/>
   <text width="103" height="20" x="302" y="654" style="fill:black;" font-family="Arial" font-size="16px">user_address</text>
   <rect width="103" height="20" x="297" y="660" style="fill:none;stroke:black;"/>
   <text width="103" height="20" x="302" y="674" style="fill:black;" font-family="Arial" font-size="16px">comment</text>
   <rect width="103" height="20" x="297" y="680" style="fill:none;stroke:black;"/>
   <text width="103" height="20" x="302" y="694" style="fill:black;" font-family="Arial" font-size="16px">date_create</text>
   <rect width="103" height="20" x="297" y="700" style="fill:none;stroke:black;"/>
   <text width="103" height="20" x="302" y="714" style="fill:black;" font-family="Arial" font-size="16px">total_price</text>
   <rect width="103" height="20" x="297" y="720" style="fill:none;stroke:black;"/>
   <text width="103" height="20" x="302" y="734" style="fill:black;" font-family="Arial" font-size="16px">status</text>
   <rect width="88" height="20" x="224" y="293" style="fill:#007;stroke:black;"/>
   <text width="88" height="20" x="229" y="307" style="fill:#fff;" font-family="Arial" font-size="16px"> pages</text>
   <rect width="88" height="20" x="224" y="313" style="fill:#aea;stroke:black;"/>
   <text width="88" height="20" x="229" y="327" style="fill:black;" font-family="Arial" font-size="16px">id</text>
   <rect width="88" height="20" x="224" y="333" style="fill:none;stroke:black;"/>
   <text width="88" height="20" x="229" y="347" style="fill:black;" font-family="Arial" font-size="16px">title</text>
   <rect width="88" height="20" x="224" y="353" style="fill:none;stroke:black;"/>
   <text width="88" height="20" x="229" y="367" style="fill:black;" font-family="Arial" font-size="16px">description</text>
   <rect width="88" height="20" x="224" y="373" style="fill:none;stroke:black;"/>
   <text width="88" height="20" x="229" y="387" style="fill:black;" font-family="Arial" font-size="16px">url</text>
   <rect width="88" height="20" x="224" y="393" style="fill:none;stroke:black;"/>
   <text width="88" height="20" x="229" y="407" style="fill:black;" font-family="Arial" font-size="16px">visible</text>
   <rect width="88" height="20" x="224" y="413" style="fill:none;stroke:black;"/>
   <text width="88" height="20" x="229" y="427" style="fill:black;" font-family="Arial" font-size="16px">created</text>
   <rect width="88" height="20" x="224" y="433" style="fill:none;stroke:black;"/>
   <text width="88" height="20" x="229" y="447" style="fill:black;" font-family="Arial" font-size="16px">updated</text>
   <rect width="88" height="20" x="225" y="56" style="fill:#007;stroke:black;"/>
   <text width="88" height="20" x="230" y="70" style="fill:#fff;" font-family="Arial" font-size="16px"> products</text>
   <rect width="88" height="20" x="225" y="76" style="fill:#aea;stroke:black;"/>
   <text width="88" height="20" x="230" y="90" style="fill:black;" font-family="Arial" font-size="16px">id</text>
   <rect width="88" height="20" x="225" y="96" style="fill:none;stroke:black;"/>
   <text width="88" height="20" x="230" y="110" style="fill:black;" font-family="Arial" font-size="16px">name</text>
   <rect width="88" height="20" x="225" y="116" style="fill:none;stroke:black;"/>
   <text width="88" height="20" x="230" y="130" style="fill:black;" font-family="Arial" font-size="16px">description</text>
   <rect width="88" height="20" x="225" y="136" style="fill:none;stroke:black;"/>
   <text width="88" height="20" x="230" y="150" style="fill:black;" font-family="Arial" font-size="16px">image</text>
   <rect width="88" height="20" x="225" y="156" style="fill:none;stroke:black;"/>
   <text width="88" height="20" x="230" y="170" style="fill:black;" font-family="Arial" font-size="16px">url</text>
   <rect width="88" height="20" x="225" y="176" style="fill:none;stroke:black;"/>
   <text width="88" height="20" x="230" y="190" style="fill:black;" font-family="Arial" font-size="16px">criated</text>
   <rect width="88" height="20" x="225" y="196" style="fill:none;stroke:black;"/>
   <text width="88" height="20" x="230" y="210" style="fill:black;" font-family="Arial" font-size="16px">updated</text>
   <rect width="88" height="20" x="225" y="216" style="fill:none;stroke:black;"/>
   <text width="88" height="20" x="230" y="230" style="fill:black;" font-family="Arial" font-size="16px">visible</text>
   <rect width="138" height="20" x="733" y="150" style="fill:#007;stroke:black;"/>
   <text width="138" height="20" x="738" y="164" style="fill:#fff;" font-family="Arial" font-size="16px"> product_categories</text>
   <rect width="138" height="20" x="733" y="170" style="fill:#aea;stroke:black;"/>
   <text width="138" height="20" x="738" y="184" style="fill:black;" font-family="Arial" font-size="16px">product_id</text>
   <rect width="138" height="20" x="733" y="190" style="fill:none;stroke:black;"/>
   <text width="138" height="20" x="738" y="204" style="fill:black;" font-family="Arial" font-size="16px">category_id</text>
   <rect width="138" height="20" x="733" y="210" style="fill:none;stroke:black;"/>
   <text width="138" height="20" x="738" y="224" style="fill:black;" font-family="Arial" font-size="16px">position</text>
   <rect width="109" height="20" x="549" y="534" style="fill:#007;stroke:black;"/>
   <text width="109" height="20" x="554" y="548" style="fill:#fff;" font-family="Arial" font-size="16px"> purchases</text>
   <rect width="109" height="20" x="549" y="554" style="fill:#aea;stroke:black;"/>
   <text width="109" height="20" x="554" y="568" style="fill:black;" font-family="Arial" font-size="16px">id</text>
   <rect width="109" height="20" x="549" y="574" style="fill:none;stroke:black;"/>
   <text width="109" height="20" x="554" y="588" style="fill:black;" font-family="Arial" font-size="16px">order_id</text>
   <rect width="109" height="20" x="549" y="594" style="fill:none;stroke:black;"/>
   <text width="109" height="20" x="554" y="608" style="fill:black;" font-family="Arial" font-size="16px">product_id</text>
   <rect width="109" height="20" x="549" y="614" style="fill:none;stroke:black;"/>
   <text width="109" height="20" x="554" y="628" style="fill:black;" font-family="Arial" font-size="16px">price_discount</text>
   <rect width="109" height="20" x="549" y="634" style="fill:none;stroke:black;"/>
   <text width="109" height="20" x="554" y="648" style="fill:black;" font-family="Arial" font-size="16px">amount</text>
   <rect width="109" height="20" x="549" y="654" style="fill:none;stroke:black;"/>
   <text width="109" height="20" x="554" y="668" style="fill:black;" font-family="Arial" font-size="16px">product_name</text>
   <rect width="109" height="20" x="549" y="674" style="fill:none;stroke:black;"/>
   <text width="109" height="20" x="554" y="688" style="fill:black;" font-family="Arial" font-size="16px">variant_id</text>
   <rect width="109" height="20" x="549" y="694" style="fill:none;stroke:black;"/>
   <text width="109" height="20" x="554" y="708" style="fill:black;" font-family="Arial" font-size="16px">variant_name</text>
   <rect width="78" height="20" x="64" y="586" style="fill:#007;stroke:black;"/>
   <text width="78" height="20" x="69" y="600" style="fill:#fff;" font-family="Arial" font-size="16px"> users</text>
   <rect width="78" height="20" x="64" y="606" style="fill:#aea;stroke:black;"/>
   <text width="78" height="20" x="69" y="620" style="fill:black;" font-family="Arial" font-size="16px">id</text>
   <rect width="78" height="20" x="64" y="626" style="fill:none;stroke:black;"/>
   <text width="78" height="20" x="69" y="640" style="fill:black;" font-family="Arial" font-size="16px">name</text>
   <rect width="78" height="20" x="64" y="646" style="fill:none;stroke:black;"/>
   <text width="78" height="20" x="69" y="660" style="fill:black;" font-family="Arial" font-size="16px">phon</text>
   <rect width="78" height="20" x="64" y="666" style="fill:none;stroke:black;"/>
   <text width="78" height="20" x="69" y="680" style="fill:black;" font-family="Arial" font-size="16px">email</text>
   <rect width="78" height="20" x="64" y="686" style="fill:none;stroke:black;"/>
   <text width="78" height="20" x="69" y="700" style="fill:black;" font-family="Arial" font-size="16px">address</text>
   <rect width="78" height="20" x="64" y="706" style="fill:none;stroke:black;"/>
   <text width="78" height="20" x="69" y="720" style="fill:black;" font-family="Arial" font-size="16px">password</text>
   <rect width="78" height="20" x="64" y="726" style="fill:none;stroke:black;"/>
   <text width="78" height="20" x="69" y="740" style="fill:black;" font-family="Arial" font-size="16px">status</text>
   <rect width="81" height="20" x="461" y="54" style="fill:#007;stroke:black;"/>
   <text width="81" height="20" x="466" y="68" style="fill:#fff;" font-family="Arial" font-size="16px"> variants</text>
   <rect width="81" height="20" x="461" y="74" style="fill:#aea;stroke:black;"/>
   <text width="81" height="20" x="466" y="88" style="fill:black;" font-family="Arial" font-size="16px">id</text>
   <rect width="81" height="20" x="461" y="94" style="fill:none;stroke:black;"/>
   <text width="81" height="20" x="466" y="108" style="fill:black;" font-family="Arial" font-size="16px">name</text>
   <rect width="81" height="20" x="461" y="114" style="fill:none;stroke:black;"/>
   <text width="81" height="20" x="466" y="128" style="fill:black;" font-family="Arial" font-size="16px">product_id</text>
   <rect width="81" height="20" x="461" y="134" style="fill:none;stroke:black;"/>
   <text width="81" height="20" x="466" y="148" style="fill:black;" font-family="Arial" font-size="16px">price</text>
   <rect width="81" height="20" x="461" y="154" style="fill:none;stroke:black;"/>
   <text width="81" height="20" x="466" y="168" style="fill:black;" font-family="Arial" font-size="16px">sku</text>
   <rect width="81" height="20" x="461" y="174" style="fill:none;stroke:black;"/>
   <text width="81" height="20" x="466" y="188" style="fill:black;" font-family="Arial" font-size="16px">stock</text>
   <rect width="81" height="20" x="461" y="194" style="fill:none;stroke:black;"/>
   <text width="81" height="20" x="466" y="208" style="fill:black;" font-family="Arial" font-size="16px">old_price</text>
   <rect width="81" height="20" x="461" y="214" style="fill:none;stroke:black;"/>
   <text width="81" height="20" x="466" y="228" style="fill:black;" font-family="Arial" font-size="16px">position</text>
</svg>
